HIERARCHY
ROOT hip
{
	OFFSET 0.000000 0.000000 0.000000 
	CHANNELS 6 Xposition Yposition Zposition Xrotation Zrotation Yrotation
	JOINT abdomen
	{
		OFFSET 0.000000 3.402643 0.000000 
		CHANNELS 3 Xrotation Zrotation Yrotation
		JOINT chest
		{
			OFFSET 0.000000 8.438565 -0.680529 
			CHANNELS 3 Xrotation Zrotation Yrotation
			JOINT neck
			{
				OFFSET 0.000000 10.207942 -0.272212 
				CHANNELS 3 Xrotation Zrotation Yrotation
				JOINT head
				{
					OFFSET 0.000000 3.130431 0.000000 
					CHANNELS 3 Xrotation Zrotation Yrotation
					End Site
					{
						OFFSET 0.000000 3.130435 0.000000 
					}
				}
			}
			JOINT lCollar
			{
				OFFSET 3.470700 6.669187 -0.816635 
				CHANNELS 3 Yrotation Zrotation Xrotation
				JOINT lShldr
				{
					OFFSET 3.198488 0.000000 0.000000 
					CHANNELS 3 Zrotation Yrotation Xrotation
					JOINT lForeArm
					{
						OFFSET 10.139888 0.000000 0.000000 
						CHANNELS 3 Yrotation Zrotation Xrotation
						JOINT lHand
						{
							OFFSET 8.370511 0.000000 0.000000 
							CHANNELS 3 Zrotation Yrotation Xrotation
							End Site
							{
								OFFSET 4.083176 0.000000 0.000000 
							}
						}
					}
				}
			}
			JOINT rCollar
			{
				OFFSET -3.470700 6.669187 -0.816635 
				CHANNELS 3 Yrotation Zrotation Xrotation
				JOINT rShldr
				{
					OFFSET -3.198488 0.000000 0.000000 
					CHANNELS 3 Zrotation Yrotation Xrotation
					JOINT rForeArm
					{
						OFFSET -10.139888 0.000000 0.000000 
						CHANNELS 3 Yrotation Zrotation Xrotation
						JOINT rHand
						{
							OFFSET -8.370511 0.000000 0.000000 
							CHANNELS 3 Zrotation Yrotation Xrotation
							End Site
							{
								OFFSET -4.083176 0.000000 0.000000 
							}
						}
					}
				}
			}
		}
	}
	JOINT lThigh
	{
		OFFSET 5.308129 -1.633274 1.361059 
		CHANNELS 3 Xrotation Zrotation Yrotation
		JOINT lShin
		{
			OFFSET -2.041588 -20.007561 0.000000 
			CHANNELS 3 Xrotation Zrotation Yrotation
			JOINT lFoot
			{
				OFFSET 0.000000 -19.190928 -1.224953 
				CHANNELS 3 Xrotation Yrotation Zrotation
				End Site
				{
					OFFSET 0.000000 -2.449906 4.627600 
				}
			}
		}
	}
	JOINT rThigh
	{
		OFFSET -5.308129 -1.633274 1.361059 
		CHANNELS 3 Xrotation Zrotation Yrotation
		JOINT rShin
		{
			OFFSET 2.041588 -20.007561 0.000000 
			CHANNELS 3 Xrotation Zrotation Yrotation
			JOINT rFoot
			{
				OFFSET 0.000000 -19.190928 -1.224953 
				CHANNELS 3 Xrotation Yrotation Zrotation
				End Site
				{
					OFFSET 0.000000 -2.449906 4.627600 
				}
			}
		}
	}
}
MOTION
Frames: 15
Frame Time: 0.033333
0.119805 44.551960 0.352216 17.441118 -1.027852 -16.897339 0.000000 0.000000 0.000000 4.457522 2.607782 6.931285 -3.281087 2.910139 0.196052 -17.433058 -1.266387 4.034159 4.572641 24.890781 22.443449 -94.044113 -16.534061 0.418227 -31.953108 -8.246907 54.661461 -2.603104 -3.235519 -60.086575 -12.148960 -21.566057 19.611849 47.056854 55.390572 45.116489 44.131786 -30.783096 -8.963031 24.173990 -3.586571 -80.582382 -40.032860 21.467840 19.627060 78.396164 17.179199 0.727943 -4.096688 -5.762367 -26.241354 -43.069641 -7.098895 0.861400 69.733940 -2.841705 4.833490 2.538066 11.582040 49.407635 
0.217874 46.205799 0.724711 17.973219 -0.074347 -17.890648 0.000000 0.000000 0.000000 2.400836 2.471960 6.949924 -1.368978 2.597644 0.176043 -16.287085 -1.060981 4.629557 5.676045 23.802750 22.054441 -92.050285 -5.502158 -0.566419 -32.591824 -11.163905 59.102077 -4.070536 -2.151756 -59.586712 -12.394764 -22.109278 19.388815 37.915607 60.368305 36.587654 43.991283 -33.462162 -9.920416 22.806734 -1.882250 -80.666328 -35.776608 20.687716 20.267025 71.376785 14.942217 0.356343 1.372239 -6.642128 -21.524715 -39.928688 -7.255494 0.616014 62.671711 -3.007559 4.168011 8.159434 13.490631 47.452724 
0.286711 48.062702 1.083308 18.703108 0.767128 -18.839537 0.000000 0.000000 0.000000 0.197104 2.481395 6.999129 0.503867 2.275383 0.146757 -15.124702 -0.826603 5.244579 6.751270 22.928743 21.688400 -89.471329 4.489901 -1.852563 -32.567135 -15.070125 63.290276 -4.998847 -1.664022 -59.139309 -12.695992 -22.490982 19.171625 26.751938 63.856724 26.426678 43.160023 -36.014355 -11.284412 21.531076 -0.448743 -80.735069 -31.540205 19.869486 20.797800 63.268501 12.709711 0.120447 7.810183 -7.263756 -15.100094 -36.503250 -7.470476 0.367654 54.413090 -2.664141 3.471438 14.492325 15.113976 45.132301 
0.319946 50.021622 1.397121 19.624115 1.434627 -19.664503 0.000000 0.000000 0.000000 -1.977956 2.636093 7.068308 2.220873 1.992183 0.117456 -14.034921 -0.592642 5.810841 7.635444 22.362730 21.396748 -86.819633 13.103740 -3.394882 -31.436525 -19.205763 67.597092 -5.509558 -1.883741 -58.717243 -13.138746 -22.645979 18.946346 14.036148 65.857086 15.170979 41.651272 -38.367039 -13.327355 20.482174 0.631924 -80.815956 -27.665194 19.158968 21.240650 54.531105 10.687324 0.020892 14.767324 -7.452968 -7.301750 -33.119061 -7.596210 0.161047 45.464760 -1.872103 2.768244 21.043331 16.044981 42.979778 
0.304137 51.936306 1.617731 20.692278 1.749976 -20.253967 0.000000 0.000000 0.000000 -3.858255 2.945590 7.167767 3.548918 1.953121 0.117452 -13.118435 -0.388332 6.211060 8.043694 22.316832 21.222116 -84.461304 20.248116 -5.086401 -29.617682 -23.152943 71.972816 -5.829942 -2.677778 -58.301437 -13.813967 -22.437950 18.715187 0.939193 66.321533 4.145905 39.591064 -40.383526 -16.234179 19.814499 1.254338 -80.880844 -24.655582 18.901915 21.665731 46.355133 9.051769 0.003721 21.096216 -7.338382 0.802609 -30.227440 -7.429990 0.066466 36.926998 -0.884514 2.161916 26.500763 15.885536 42.201847 
0.249834 53.630627 1.737725 21.651178 1.691785 -20.546204 0.000000 0.000000 0.000000 -5.155115 3.303381 7.268498 4.370434 2.177728 0.136991 -12.450034 -0.252340 6.367212 7.916161 22.822105 21.205847 -82.476013 26.031244 -6.918168 -27.554325 -26.770519 76.665276 -6.055043 -3.745128 -57.907047 -14.737534 -22.073418 18.429058 -11.395264 65.561172 -5.506849 36.689995 -41.909340 -20.469410 19.475391 1.509377 -80.923721 -22.682518 19.154421 22.069168 39.942883 7.831490 0.087249 25.629343 -7.155380 7.087450 -28.000988 -6.961112 0.102466 29.977495 -0.073330 1.669762 29.773020 14.904013 43.585377 
0.186070 55.008423 1.785083 22.291897 1.390105 -20.533587 0.000000 0.000000 0.000000 -5.705638 3.622503 7.339121 4.714014 2.558584 0.156530 -11.968796 -0.232991 6.230496 7.497709 23.752554 21.254793 -80.680679 30.528486 -8.991616 -25.509459 -30.283068 82.051834 -6.518115 -4.529390 -57.536625 -15.711872 -21.847340 18.088062 -21.476807 63.930023 -12.364370 32.949741 -42.975601 -26.055927 19.323893 1.562936 -80.942757 -21.542336 19.617723 22.457306 35.865154 7.032496 0.123224 28.298647 -7.078171 10.029775 -26.429815 -6.424445 0.183997 25.173353 0.376566 1.339292 31.211481 13.775067 45.753159 
0.130452 56.059826 1.783471 22.552151 0.943659 -20.256666 0.000000 0.000000 0.000000 -5.615007 3.844849 7.390411 4.687325 2.958969 0.185804 -11.654990 -0.330297 5.859446 6.966350 24.916723 21.351152 -78.997559 33.780205 -11.292719 -23.544168 -33.693424 87.973007 -7.289155 -4.906292 -57.178936 -16.583408 -21.844625 17.735744 -28.963219 61.900425 -16.187311 28.642624 -43.620823 -32.661865 19.299959 1.484128 -80.960915 -21.035076 20.087688 22.717060 33.914753 6.646558 0.127914 29.443668 -7.262218 9.633327 -25.362093 -5.974698 0.294377 22.471943 0.575869 1.103648 31.366165 12.852489 47.714115 
0.101714 56.822124 1.765015 22.451862 0.514686 -19.756609 0.000000 0.000000 0.000000 -5.051672 3.960888 7.410574 4.475061 3.242165 0.215604 -11.482738 -0.505615 5.332168 6.524667 26.043104 21.413910 -77.407387 35.790058 -13.614157 -21.519997 -36.746841 93.958694 -8.362256 -4.883306 -56.876244 -17.201448 -22.044956 17.407187 -34.018505 59.910152 -17.552559 24.287294 -43.852074 -39.404533 19.265381 1.390743 -80.960350 -20.906353 20.288681 22.835463 33.479549 6.579161 0.138995 29.716715 -7.829340 6.553223 -24.682447 -5.828662 0.275568 21.406824 0.630884 1.056000 31.216389 12.469800 48.285782 
0.111280 57.240345 1.738330 22.120956 0.249227 -19.052887 0.000000 0.000000 0.000000 -4.250306 3.970659 7.400832 4.202561 3.339818 0.225366 -11.419258 -0.749406 4.717159 6.260481 26.853342 21.450699 -76.131332 36.183445 -15.239173 -19.856936 -38.699520 98.208366 -9.263630 -4.622066 -56.703915 -17.371552 -22.312536 17.251991 -36.499287 58.515503 -17.322971 21.057234 -43.697960 -44.337517 19.225780 1.327822 -80.958992 -21.139977 20.121069 22.727825 34.099438 6.783110 0.151972 29.541496 -8.733189 2.130956 -24.470064 -6.093140 0.194237 21.728363 0.640885 1.081785 31.354448 12.752395 47.037300 
0.141155 57.423622 1.706395 21.779778 0.111317 -18.212914 0.000000 0.000000 0.000000 -3.497487 3.912727 7.380674 3.938393 3.359351 0.215619 -11.457463 -0.993579 4.072837 6.110629 27.337498 21.472933 -75.258919 35.466469 -15.918543 -18.857906 -39.469841 100.213348 -9.783905 -4.432357 -56.640049 -17.243008 -22.468119 17.252506 -37.316811 57.713608 -16.552187 19.062374 -43.429756 -47.189495 19.184240 1.314654 -80.956871 -21.620895 19.774904 22.497311 35.085873 7.050620 0.157131 29.137447 -9.620422 -1.912293 -24.572668 -6.579981 0.044426 22.635099 0.630758 1.159716 31.784315 13.417377 44.974716 
0.183859 57.374245 1.665838 21.507101 0.083926 -17.275400 0.000000 0.000000 0.000000 -2.840042 3.796677 7.360524 3.664808 3.320289 0.215614 -11.529031 -1.238028 3.418647 6.009961 27.491230 21.506115 -74.893478 33.753769 -15.623395 -18.697708 -39.036926 99.770187 -9.803984 -4.363083 -56.666954 -16.871578 -22.490608 17.411966 -36.665386 57.538742 -15.565448 18.384151 -43.188988 -47.728062 19.126530 1.323838 -80.953705 -22.322315 19.263836 22.194515 36.281017 7.324592 0.166493 28.550440 -10.401013 -5.095980 -25.026384 -7.255046 -0.147398 23.960442 0.620932 1.285710 32.388683 14.309796 42.574589 
0.231982 57.091393 1.611957 21.359875 0.159407 -16.220749 0.000000 0.000000 0.000000 -2.326097 3.642113 7.309885 3.361927 3.281227 0.215609 -11.681943 -1.472918 2.744991 5.886976 27.344362 21.578558 -75.179108 31.115252 -14.479752 -19.304544 -37.309586 96.963043 -9.344780 -4.483139 -56.789135 -16.299019 -22.345507 17.691397 -34.580467 57.942627 -14.337470 18.941387 -43.046299 -46.095810 19.054195 1.365020 -80.949257 -23.287548 18.685247 21.820223 37.641613 7.614205 0.133097 27.786718 -10.927429 -7.132942 -25.786671 -8.065170 -0.330746 25.569780 0.614987 1.396139 33.104477 15.296009 40.342674 
0.271310 56.498997 1.526889 21.391359 0.273503 -15.039214 0.000000 0.000000 0.000000 -1.953544 3.448763 7.259337 2.903694 3.330053 0.225365 -11.875959 -1.678632 2.032094 5.674250 26.982399 21.722652 -76.290253 27.583624 -12.558747 -20.585516 -34.190411 91.884781 -8.603180 -4.851676 -56.978424 -15.622686 -22.004160 18.083891 -30.721125 58.908817 -12.524253 20.686140 -43.011993 -42.325748 18.900316 1.389537 -80.940880 -24.696964 18.173416 21.372978 39.251087 7.861203 0.122148 26.874798 -11.191874 -8.065043 -27.025883 -8.895234 -0.496162 27.636112 0.639100 1.563504 33.740086 16.175209 39.089806 
0.281437 55.513241 1.383313 21.550388 0.208661 -13.779382 0.000000 0.000000 0.000000 -1.477522 3.294051 7.219190 2.103489 3.476536 0.225380 -12.172189 -1.894037 1.309170 5.264960 26.766380 21.943451 -77.942055 23.439598 -10.442265 -22.143351 -30.929661 85.933182 -8.033884 -4.872827 -57.248161 -15.011128 -21.662489 18.435387 -25.101593 60.165962 -9.564052 23.269312 -43.038116 -37.412857 18.717012 1.287109 -80.923271 -26.724277 17.982296 20.945168 41.900429 8.134666 0.050568 25.464344 -11.340863 -9.193681 -28.998446 -9.510342 -0.596259 31.027063 0.595526 1.883789 33.409260 16.929193 39.184753 
